<svg width="960" height="720" viewBox="0 0 960 720" fill="none" xmlns="http://www.w3.org/2000/svg" role="img" aria-labelledby="title desc">
  <title id="title">InsightOps dashboard preview</title>
  <desc id="desc">A SaaS reliability monitoring dashboard with metrics, incidents, logs, and service health.</desc>
  <rect width="960" height="720" rx="38" fill="#F8FAFC"/>
  <rect x="28" y="28" width="904" height="664" rx="30" fill="white" stroke="#CBD5E1" stroke-width="2"/>
  <rect x="28" y="28" width="904" height="74" rx="30" fill="#0F172A"/>
  <path d="M28 72H932V102H28V72Z" fill="#0F172A"/>
  <circle cx="75" cy="65" r="10" fill="#60A5FA"/>
  <circle cx="109" cy="65" r="10" fill="#F59E0B"/>
  <circle cx="143" cy="65" r="10" fill="#10B981"/>
  <rect x="184" y="51" width="184" height="28" rx="14" fill="#1E293B"/>
  <rect x="724" y="51" width="156" height="28" rx="14" fill="#2563EB"/>
  <text x="207" y="70" fill="#CBD5E1" font-family="Arial, sans-serif" font-size="16" font-weight="700">InsightOps</text>
  <text x="757" y="70" fill="white" font-family="Arial, sans-serif" font-size="14" font-weight="700">Live feed</text>

  <rect x="64" y="140" width="196" height="116" rx="18" fill="#EFF6FF" stroke="#BFDBFE"/>
  <text x="88" y="174" fill="#2563EB" font-family="Arial, sans-serif" font-size="14" font-weight="700">Applications</text>
  <text x="88" y="220" fill="#0F172A" font-family="Arial, sans-serif" font-size="44" font-weight="700">12</text>
  <rect x="190" y="202" width="42" height="24" rx="12" fill="#DBEAFE"/>
  <text x="202" y="219" fill="#1D4ED8" font-family="Arial, sans-serif" font-size="12" font-weight="700">UP</text>

  <rect x="286" y="140" width="196" height="116" rx="18" fill="#FEF2F2" stroke="#FECACA"/>
  <text x="310" y="174" fill="#DC2626" font-family="Arial, sans-serif" font-size="14" font-weight="700">Active incidents</text>
  <text x="310" y="220" fill="#0F172A" font-family="Arial, sans-serif" font-size="44" font-weight="700">03</text>
  <rect x="400" y="202" width="54" height="24" rx="12" fill="#FEE2E2"/>
  <text x="413" y="219" fill="#B91C1C" font-family="Arial, sans-serif" font-size="12" font-weight="700">HOT</text>

  <rect x="508" y="140" width="196" height="116" rx="18" fill="#FFFBEB" stroke="#FDE68A"/>
  <text x="532" y="174" fill="#B45309" font-family="Arial, sans-serif" font-size="14" font-weight="700">P95 latency</text>
  <text x="532" y="220" fill="#0F172A" font-family="Arial, sans-serif" font-size="44" font-weight="700">842</text>
  <text x="629" y="219" fill="#475569" font-family="Arial, sans-serif" font-size="18" font-weight="700">ms</text>

  <rect x="730" y="140" width="166" height="116" rx="18" fill="#ECFDF5" stroke="#A7F3D0"/>
  <text x="754" y="174" fill="#047857" font-family="Arial, sans-serif" font-size="14" font-weight="700">Health</text>
  <circle cx="790" cy="215" r="25" fill="#10B981"/>
  <path d="M778 216L787 225L803 205" stroke="white" stroke-width="7" stroke-linecap="round" stroke-linejoin="round"/>
  <text x="832" y="221" fill="#0F172A" font-family="Arial, sans-serif" font-size="18" font-weight="700">98%</text>

  <rect x="64" y="292" width="534" height="320" rx="20" fill="#F8FAFC" stroke="#CBD5E1"/>
  <text x="92" y="335" fill="#0F172A" font-family="Arial, sans-serif" font-size="20" font-weight="700">Route performance</text>
  <text x="92" y="363" fill="#64748B" font-family="Arial, sans-serif" font-size="14">Requests, errors, and latency by endpoint</text>
  <path d="M104 536C144 488 177 512 215 455C257 393 308 444 346 401C391 350 421 408 466 366C512 323 548 354 566 328" stroke="#2563EB" stroke-width="8" stroke-linecap="round"/>
  <path d="M104 560C148 548 186 532 226 538C273 545 301 506 340 512C391 520 417 469 462 484C506 498 528 466 566 452" stroke="#F59E0B" stroke-width="8" stroke-linecap="round"/>
  <line x1="104" y1="404" x2="560" y2="404" stroke="#E2E8F0" stroke-width="2"/>
  <line x1="104" y1="480" x2="560" y2="480" stroke="#E2E8F0" stroke-width="2"/>
  <line x1="104" y1="556" x2="560" y2="556" stroke="#E2E8F0" stroke-width="2"/>
  <rect x="92" y="382" width="110" height="28" rx="14" fill="#DBEAFE"/>
  <text x="112" y="401" fill="#1D4ED8" font-family="Arial, sans-serif" font-size="13" font-weight="700">/api/orders</text>
  <rect x="214" y="382" width="112" height="28" rx="14" fill="#FEF3C7"/>
  <text x="234" y="401" fill="#B45309" font-family="Arial, sans-serif" font-size="13" font-weight="700">/api/login</text>

  <rect x="626" y="292" width="270" height="320" rx="20" fill="#0F172A"/>
  <text x="654" y="335" fill="white" font-family="Arial, sans-serif" font-size="20" font-weight="700">Incident feed</text>
  <text x="654" y="363" fill="#94A3B8" font-family="Arial, sans-serif" font-size="14">Realtime updates from monitored apps</text>
  <rect x="654" y="392" width="214" height="54" rx="14" fill="#1E293B"/>
  <circle cx="680" cy="419" r="9" fill="#EF4444"/>
  <text x="700" y="415" fill="#E2E8F0" font-family="Arial, sans-serif" font-size="13" font-weight="700">POST /api/orders</text>
  <text x="700" y="434" fill="#94A3B8" font-family="Arial, sans-serif" font-size="12">Error rate above threshold</text>
  <rect x="654" y="462" width="214" height="54" rx="14" fill="#1E293B"/>
  <circle cx="680" cy="489" r="9" fill="#F59E0B"/>
  <text x="700" y="485" fill="#E2E8F0" font-family="Arial, sans-serif" font-size="13" font-weight="700">GET /api/users</text>
  <text x="700" y="504" fill="#94A3B8" font-family="Arial, sans-serif" font-size="12">Latency spike detected</text>
  <rect x="654" y="532" width="214" height="54" rx="14" fill="#1E293B"/>
  <circle cx="680" cy="559" r="9" fill="#22C55E"/>
  <text x="700" y="555" fill="#E2E8F0" font-family="Arial, sans-serif" font-size="13" font-weight="700">checkout-api</text>
  <text x="700" y="574" fill="#94A3B8" font-family="Arial, sans-serif" font-size="12">Health check recovered</text>
</svg>
